<mxfile host="65bd71144e">
    <diagram id="ZSAKdDLU09m8nj1zlMC5" name="Page-1">
        <mxGraphModel dx="3057" dy="1877" grid="1" gridSize="10" guides="1" tooltips="1" connect="1" arrows="1" fold="1" page="1" pageScale="1" pageWidth="827" pageHeight="1169" math="0" shadow="0">
            <root>
                <mxCell id="0"/>
                <mxCell id="1" parent="0"/>
                <mxCell id="2" value="domain" style="whiteSpace=wrap;html=1;align=center;fillColor=#60a917;fontColor=#ffffff;strokeColor=#2D7600;" parent="1" vertex="1">
                    <mxGeometry x="320" y="520" width="100" height="40" as="geometry"/>
                </mxCell>
                <mxCell id="68" style="edgeStyle=entityRelationEdgeStyle;rounded=1;orthogonalLoop=1;jettySize=auto;html=1;endArrow=none;endFill=0;" parent="1" source="3" target="67" edge="1">
                    <mxGeometry relative="1" as="geometry"/>
                </mxCell>
                <mxCell id="71" style="edgeStyle=entityRelationEdgeStyle;rounded=1;orthogonalLoop=1;jettySize=auto;html=1;endArrow=none;endFill=0;" parent="1" source="3" target="69" edge="1">
                    <mxGeometry relative="1" as="geometry"/>
                </mxCell>
                <mxCell id="74" style="edgeStyle=entityRelationEdgeStyle;rounded=1;orthogonalLoop=1;jettySize=auto;html=1;endArrow=none;endFill=0;" parent="1" source="3" target="70" edge="1">
                    <mxGeometry relative="1" as="geometry"/>
                </mxCell>
                <mxCell id="77" style="edgeStyle=entityRelationEdgeStyle;rounded=1;orthogonalLoop=1;jettySize=auto;html=1;endArrow=none;endFill=0;" parent="1" source="3" target="75" edge="1">
                    <mxGeometry relative="1" as="geometry"/>
                </mxCell>
                <mxCell id="78" style="edgeStyle=entityRelationEdgeStyle;rounded=1;orthogonalLoop=1;jettySize=auto;html=1;endArrow=none;endFill=0;" parent="1" source="3" target="76" edge="1">
                    <mxGeometry relative="1" as="geometry"/>
                </mxCell>
                <mxCell id="81" style="edgeStyle=entityRelationEdgeStyle;rounded=1;orthogonalLoop=1;jettySize=auto;html=1;endArrow=none;endFill=0;" parent="1" source="3" target="79" edge="1">
                    <mxGeometry relative="1" as="geometry"/>
                </mxCell>
                <mxCell id="82" style="edgeStyle=entityRelationEdgeStyle;rounded=1;orthogonalLoop=1;jettySize=auto;html=1;endArrow=none;endFill=0;" parent="1" source="3" target="80" edge="1">
                    <mxGeometry relative="1" as="geometry"/>
                </mxCell>
                <mxCell id="3" value="registrar" style="whiteSpace=wrap;html=1;align=center;fillColor=#60a917;fontColor=#ffffff;strokeColor=#2D7600;" parent="1" vertex="1">
                    <mxGeometry x="660" y="920" width="100" height="40" as="geometry"/>
                </mxCell>
                <mxCell id="87" style="edgeStyle=entityRelationEdgeStyle;rounded=1;orthogonalLoop=1;jettySize=auto;html=1;endArrow=none;endFill=0;" parent="1" source="4" target="84" edge="1">
                    <mxGeometry relative="1" as="geometry"/>
                </mxCell>
                <mxCell id="88" style="edgeStyle=entityRelationEdgeStyle;rounded=1;orthogonalLoop=1;jettySize=auto;html=1;endArrow=none;endFill=0;" parent="1" source="4" target="83" edge="1">
                    <mxGeometry relative="1" as="geometry"/>
                </mxCell>
                <mxCell id="89" style="edgeStyle=entityRelationEdgeStyle;rounded=1;orthogonalLoop=1;jettySize=auto;html=1;endArrow=none;endFill=0;" parent="1" source="4" target="85" edge="1">
                    <mxGeometry relative="1" as="geometry"/>
                </mxCell>
                <mxCell id="163" value="" style="edgeStyle=entityRelationEdgeStyle;html=1;endArrow=none;endFill=0;" parent="1" source="4" target="86" edge="1">
                    <mxGeometry relative="1" as="geometry"/>
                </mxCell>
                <mxCell id="4" value="nameserver" style="whiteSpace=wrap;html=1;align=center;fillColor=#60a917;fontColor=#ffffff;strokeColor=#2D7600;" parent="1" vertex="1">
                    <mxGeometry x="657" y="250" width="100" height="40" as="geometry"/>
                </mxCell>
                <mxCell id="221" style="edgeStyle=entityRelationEdgeStyle;html=1;entryX=0;entryY=0.5;entryDx=0;entryDy=0;endArrow=none;endFill=0;" edge="1" parent="1" source="5" target="2">
                    <mxGeometry relative="1" as="geometry"/>
                </mxCell>
                <mxCell id="5" value="id" style="ellipse;whiteSpace=wrap;html=1;align=center;fontStyle=4;fillColor=#a20025;strokeColor=#6F0000;fontColor=#ffffff;" parent="1" vertex="1">
                    <mxGeometry x="160" y="360" width="100" height="40" as="geometry"/>
                </mxCell>
                <mxCell id="222" style="edgeStyle=entityRelationEdgeStyle;html=1;exitX=1;exitY=0.5;exitDx=0;exitDy=0;entryX=0;entryY=0.5;entryDx=0;entryDy=0;endArrow=none;endFill=0;" edge="1" parent="1" source="8" target="2">
                    <mxGeometry relative="1" as="geometry"/>
                </mxCell>
                <mxCell id="8" value="name" style="ellipse;whiteSpace=wrap;html=1;align=center;fontStyle=4;fillColor=#a20025;strokeColor=#6F0000;fontColor=#ffffff;" parent="1" vertex="1">
                    <mxGeometry x="160" y="400" width="100" height="40" as="geometry"/>
                </mxCell>
                <mxCell id="223" style="edgeStyle=entityRelationEdgeStyle;html=1;exitX=1;exitY=0.5;exitDx=0;exitDy=0;entryX=0;entryY=0.5;entryDx=0;entryDy=0;endArrow=none;endFill=0;" edge="1" parent="1" source="10" target="2">
                    <mxGeometry relative="1" as="geometry"/>
                </mxCell>
                <mxCell id="10" value="handle" style="ellipse;whiteSpace=wrap;html=1;align=center;fillColor=#a20025;strokeColor=#6F0000;fontColor=#ffffff;" parent="1" vertex="1">
                    <mxGeometry x="160" y="440" width="100" height="40" as="geometry"/>
                </mxCell>
                <mxCell id="224" style="edgeStyle=entityRelationEdgeStyle;html=1;exitX=1;exitY=0.5;exitDx=0;exitDy=0;entryX=0;entryY=0.5;entryDx=0;entryDy=0;endArrow=none;endFill=0;" edge="1" parent="1" source="12" target="2">
                    <mxGeometry relative="1" as="geometry"/>
                </mxCell>
                <mxCell id="12" value="protocol&lt;br&gt;number" style="ellipse;whiteSpace=wrap;html=1;align=center;fillColor=#a20025;strokeColor=#6F0000;fontColor=#ffffff;" parent="1" vertex="1">
                    <mxGeometry x="160" y="480" width="100" height="40" as="geometry"/>
                </mxCell>
                <mxCell id="225" style="edgeStyle=entityRelationEdgeStyle;html=1;exitX=1;exitY=0.5;exitDx=0;exitDy=0;endArrow=none;endFill=0;entryX=0;entryY=0.5;entryDx=0;entryDy=0;" edge="1" parent="1" source="14" target="2">
                    <mxGeometry relative="1" as="geometry">
                        <mxPoint x="350" y="440" as="targetPoint"/>
                    </mxGeometry>
                </mxCell>
                <mxCell id="14" value="creation&lt;br&gt;date" style="ellipse;whiteSpace=wrap;html=1;align=center;fillColor=#a20025;strokeColor=#6F0000;fontColor=#ffffff;" parent="1" vertex="1">
                    <mxGeometry x="160" y="520" width="100" height="40" as="geometry"/>
                </mxCell>
                <mxCell id="226" style="edgeStyle=entityRelationEdgeStyle;html=1;exitX=1;exitY=0.5;exitDx=0;exitDy=0;entryX=0;entryY=0.5;entryDx=0;entryDy=0;endArrow=none;endFill=0;" edge="1" parent="1" source="15" target="2">
                    <mxGeometry relative="1" as="geometry"/>
                </mxCell>
                <mxCell id="15" value="expiration&lt;br&gt;date" style="ellipse;whiteSpace=wrap;html=1;align=center;fillColor=#a20025;strokeColor=#6F0000;fontColor=#ffffff;" parent="1" vertex="1">
                    <mxGeometry x="160" y="560" width="100" height="40" as="geometry"/>
                </mxCell>
                <mxCell id="227" style="edgeStyle=entityRelationEdgeStyle;html=1;exitX=1;exitY=0.5;exitDx=0;exitDy=0;entryX=0;entryY=0.5;entryDx=0;entryDy=0;endArrow=none;endFill=0;" edge="1" parent="1" source="40" target="2">
                    <mxGeometry relative="1" as="geometry"/>
                </mxCell>
                <mxCell id="40" value="last&lt;br&gt;update" style="ellipse;whiteSpace=wrap;html=1;align=center;fillColor=#a20025;strokeColor=#6F0000;fontColor=#ffffff;" parent="1" vertex="1">
                    <mxGeometry x="160" y="600" width="100" height="40" as="geometry"/>
                </mxCell>
                <mxCell id="228" style="edgeStyle=entityRelationEdgeStyle;html=1;exitX=1;exitY=0.5;exitDx=0;exitDy=0;entryX=0;entryY=0.5;entryDx=0;entryDy=0;endArrow=none;endFill=0;" edge="1" parent="1" source="42" target="2">
                    <mxGeometry relative="1" as="geometry"/>
                </mxCell>
                <mxCell id="42" value="created_at" style="ellipse;whiteSpace=wrap;html=1;align=center;fillColor=#a20025;strokeColor=#6F0000;fontColor=#ffffff;" parent="1" vertex="1">
                    <mxGeometry x="160" y="640" width="100" height="40" as="geometry"/>
                </mxCell>
                <mxCell id="229" style="edgeStyle=entityRelationEdgeStyle;html=1;exitX=1;exitY=0.5;exitDx=0;exitDy=0;entryX=0;entryY=0.5;entryDx=0;entryDy=0;endArrow=none;endFill=0;" edge="1" parent="1" source="43" target="2">
                    <mxGeometry relative="1" as="geometry"/>
                </mxCell>
                <mxCell id="43" value="updated_at" style="ellipse;whiteSpace=wrap;html=1;align=center;fillColor=#a20025;strokeColor=#6F0000;fontColor=#ffffff;" parent="1" vertex="1">
                    <mxGeometry x="160" y="680" width="100" height="40" as="geometry"/>
                </mxCell>
                <mxCell id="61" value="has" style="shape=rhombus;perimeter=rhombusPerimeter;whiteSpace=wrap;html=1;align=center;fillColor=#0050ef;fontColor=#ffffff;strokeColor=#001DBC;" parent="1" vertex="1">
                    <mxGeometry x="650" y="670" width="120" height="60" as="geometry"/>
                </mxCell>
                <mxCell id="67" value="id" style="ellipse;whiteSpace=wrap;html=1;align=center;fontStyle=4;fillColor=#a20025;strokeColor=#6F0000;fontColor=#ffffff;" parent="1" vertex="1">
                    <mxGeometry x="500" y="800" width="100" height="40" as="geometry"/>
                </mxCell>
                <mxCell id="69" value="name" style="ellipse;whiteSpace=wrap;html=1;align=center;fillColor=#a20025;strokeColor=#6F0000;fontColor=#ffffff;" parent="1" vertex="1">
                    <mxGeometry x="500" y="840" width="100" height="40" as="geometry"/>
                </mxCell>
                <mxCell id="70" value="url" style="ellipse;whiteSpace=wrap;html=1;align=center;fillColor=#a20025;strokeColor=#6F0000;fontColor=#ffffff;" parent="1" vertex="1">
                    <mxGeometry x="500" y="880" width="100" height="40" as="geometry"/>
                </mxCell>
                <mxCell id="75" value="email" style="ellipse;whiteSpace=wrap;html=1;align=center;fillColor=#a20025;strokeColor=#6F0000;fontColor=#ffffff;" parent="1" vertex="1">
                    <mxGeometry x="500" y="920" width="100" height="40" as="geometry"/>
                </mxCell>
                <mxCell id="76" value="phone" style="ellipse;whiteSpace=wrap;html=1;align=center;fillColor=#a20025;strokeColor=#6F0000;fontColor=#ffffff;" parent="1" vertex="1">
                    <mxGeometry x="500" y="960" width="100" height="40" as="geometry"/>
                </mxCell>
                <mxCell id="79" value="created_at" style="ellipse;whiteSpace=wrap;html=1;align=center;fillColor=#a20025;strokeColor=#6F0000;fontColor=#ffffff;" parent="1" vertex="1">
                    <mxGeometry x="500" y="1000" width="100" height="40" as="geometry"/>
                </mxCell>
                <mxCell id="80" value="updated_at" style="ellipse;whiteSpace=wrap;html=1;align=center;fillColor=#a20025;strokeColor=#6F0000;fontColor=#ffffff;" parent="1" vertex="1">
                    <mxGeometry x="500" y="1040" width="100" height="40" as="geometry"/>
                </mxCell>
                <mxCell id="83" value="name" style="ellipse;whiteSpace=wrap;html=1;align=center;fillColor=#a20025;strokeColor=#6F0000;fontColor=#ffffff;" parent="1" vertex="1">
                    <mxGeometry x="496" y="230" width="100" height="40" as="geometry"/>
                </mxCell>
                <mxCell id="84" value="id" style="ellipse;whiteSpace=wrap;html=1;align=center;fontStyle=4;fillColor=#a20025;strokeColor=#6F0000;fontColor=#ffffff;" parent="1" vertex="1">
                    <mxGeometry x="496" y="190" width="100" height="40" as="geometry"/>
                </mxCell>
                <mxCell id="85" value="created_at" style="ellipse;whiteSpace=wrap;html=1;align=center;fillColor=#a20025;strokeColor=#6F0000;fontColor=#ffffff;" parent="1" vertex="1">
                    <mxGeometry x="496" y="270" width="100" height="40" as="geometry"/>
                </mxCell>
                <mxCell id="86" value="updated_at" style="ellipse;whiteSpace=wrap;html=1;align=center;fillColor=#a20025;strokeColor=#6F0000;fontColor=#ffffff;" parent="1" vertex="1">
                    <mxGeometry x="496" y="310" width="100" height="40" as="geometry"/>
                </mxCell>
                <mxCell id="91" value="has" style="shape=rhombus;perimeter=rhombusPerimeter;whiteSpace=wrap;html=1;align=center;fillColor=#0050ef;fontColor=#ffffff;strokeColor=#001DBC;" parent="1" vertex="1">
                    <mxGeometry x="650" y="380" width="120" height="60" as="geometry"/>
                </mxCell>
                <mxCell id="100" value="" style="shape=link;html=1;rounded=0;" parent="1" edge="1">
                    <mxGeometry relative="1" as="geometry">
                        <mxPoint x="660" y="540" as="sourcePoint"/>
                        <mxPoint x="580" y="540" as="targetPoint"/>
                    </mxGeometry>
                </mxCell>
                <mxCell id="101" value="N" style="resizable=0;html=1;align=right;verticalAlign=bottom;" parent="100" connectable="0" vertex="1">
                    <mxGeometry x="1" relative="1" as="geometry"/>
                </mxCell>
                <mxCell id="102" value="" style="endArrow=none;html=1;rounded=0;" parent="1" source="2" edge="1">
                    <mxGeometry relative="1" as="geometry">
                        <mxPoint x="380" y="600" as="sourcePoint"/>
                        <mxPoint x="460" y="540" as="targetPoint"/>
                    </mxGeometry>
                </mxCell>
                <mxCell id="103" value="1" style="resizable=0;html=1;align=right;verticalAlign=bottom;" parent="102" connectable="0" vertex="1">
                    <mxGeometry x="1" relative="1" as="geometry"/>
                </mxCell>
                <mxCell id="104" value="" style="endArrow=none;html=1;rounded=0;" parent="1" target="61" edge="1">
                    <mxGeometry relative="1" as="geometry">
                        <mxPoint x="710" y="560" as="sourcePoint"/>
                        <mxPoint x="760" y="600" as="targetPoint"/>
                    </mxGeometry>
                </mxCell>
                <mxCell id="105" value="N" style="resizable=0;html=1;align=right;verticalAlign=bottom;" parent="104" connectable="0" vertex="1">
                    <mxGeometry x="1" relative="1" as="geometry"/>
                </mxCell>
                <mxCell id="106" value="" style="endArrow=none;html=1;rounded=0;" parent="1" source="3" target="61" edge="1">
                    <mxGeometry relative="1" as="geometry">
                        <mxPoint x="580" y="750" as="sourcePoint"/>
                        <mxPoint x="740" y="750" as="targetPoint"/>
                    </mxGeometry>
                </mxCell>
                <mxCell id="107" value="1" style="resizable=0;html=1;align=right;verticalAlign=bottom;" parent="106" connectable="0" vertex="1">
                    <mxGeometry x="1" relative="1" as="geometry"/>
                </mxCell>
                <mxCell id="108" value="" style="endArrow=none;html=1;rounded=0;" parent="1" target="91" edge="1">
                    <mxGeometry relative="1" as="geometry">
                        <mxPoint x="710" y="520" as="sourcePoint"/>
                        <mxPoint x="720" y="450" as="targetPoint"/>
                    </mxGeometry>
                </mxCell>
                <mxCell id="109" value="N" style="resizable=0;html=1;align=right;verticalAlign=bottom;" parent="108" connectable="0" vertex="1">
                    <mxGeometry x="1" relative="1" as="geometry">
                        <mxPoint x="-10" y="20" as="offset"/>
                    </mxGeometry>
                </mxCell>
                <mxCell id="110" value="" style="endArrow=none;html=1;rounded=0;" parent="1" source="4" target="91" edge="1">
                    <mxGeometry relative="1" as="geometry">
                        <mxPoint x="570" y="330" as="sourcePoint"/>
                        <mxPoint x="730" y="330" as="targetPoint"/>
                    </mxGeometry>
                </mxCell>
                <mxCell id="111" value="M" style="resizable=0;html=1;align=right;verticalAlign=bottom;" parent="110" connectable="0" vertex="1">
                    <mxGeometry x="1" relative="1" as="geometry">
                        <mxPoint x="-9" as="offset"/>
                    </mxGeometry>
                </mxCell>
                <mxCell id="120" style="edgeStyle=entityRelationEdgeStyle;rounded=1;orthogonalLoop=1;jettySize=auto;html=1;endArrow=none;endFill=0;" parent="1" source="114" target="117" edge="1">
                    <mxGeometry relative="1" as="geometry"/>
                </mxCell>
                <mxCell id="126" style="edgeStyle=entityRelationEdgeStyle;rounded=1;orthogonalLoop=1;jettySize=auto;html=1;endArrow=none;endFill=0;" parent="1" source="114" target="124" edge="1">
                    <mxGeometry relative="1" as="geometry"/>
                </mxCell>
                <mxCell id="127" style="edgeStyle=entityRelationEdgeStyle;rounded=1;orthogonalLoop=1;jettySize=auto;html=1;endArrow=none;endFill=0;" parent="1" source="114" target="125" edge="1">
                    <mxGeometry relative="1" as="geometry"/>
                </mxCell>
                <mxCell id="155" style="edgeStyle=entityRelationEdgeStyle;rounded=1;orthogonalLoop=1;jettySize=auto;html=1;endArrow=none;endFill=0;" parent="1" source="114" target="154" edge="1">
                    <mxGeometry relative="1" as="geometry"/>
                </mxCell>
                <mxCell id="114" value="registry query" style="whiteSpace=wrap;html=1;align=center;fillColor=#60a917;fontColor=#ffffff;strokeColor=#2D7600;" parent="1" vertex="1">
                    <mxGeometry x="1040" y="860" width="100" height="40" as="geometry"/>
                </mxCell>
                <mxCell id="119" style="rounded=1;orthogonalLoop=1;jettySize=auto;html=1;endArrow=none;endFill=0;edgeStyle=entityRelationEdgeStyle;" parent="1" source="115" target="118" edge="1">
                    <mxGeometry relative="1" as="geometry"/>
                </mxCell>
                <mxCell id="122" style="edgeStyle=entityRelationEdgeStyle;rounded=1;orthogonalLoop=1;jettySize=auto;html=1;endArrow=none;endFill=0;" parent="1" source="115" target="116" edge="1">
                    <mxGeometry relative="1" as="geometry"/>
                </mxCell>
                <mxCell id="123" style="edgeStyle=entityRelationEdgeStyle;rounded=1;orthogonalLoop=1;jettySize=auto;html=1;endArrow=none;endFill=0;" parent="1" source="115" target="121" edge="1">
                    <mxGeometry relative="1" as="geometry"/>
                </mxCell>
                <mxCell id="137" style="edgeStyle=entityRelationEdgeStyle;rounded=1;orthogonalLoop=1;jettySize=auto;html=1;endArrow=none;endFill=0;" parent="1" source="115" target="136" edge="1">
                    <mxGeometry relative="1" as="geometry"/>
                </mxCell>
                <mxCell id="139" style="edgeStyle=entityRelationEdgeStyle;rounded=1;orthogonalLoop=1;jettySize=auto;html=1;endArrow=none;endFill=0;" parent="1" source="115" target="138" edge="1">
                    <mxGeometry relative="1" as="geometry"/>
                </mxCell>
                <mxCell id="115" value="whois query" style="whiteSpace=wrap;html=1;align=center;fillColor=#60a917;fontColor=#ffffff;strokeColor=#2D7600;" parent="1" vertex="1">
                    <mxGeometry x="1040" y="520" width="100" height="40" as="geometry"/>
                </mxCell>
                <mxCell id="116" value="created_at" style="ellipse;whiteSpace=wrap;html=1;align=center;fillColor=#a20025;fontColor=#ffffff;strokeColor=#6F0000;" parent="1" vertex="1">
                    <mxGeometry x="1200" y="480" width="100" height="40" as="geometry"/>
                </mxCell>
                <mxCell id="117" value="id" style="ellipse;whiteSpace=wrap;html=1;align=center;fontStyle=4;fillColor=#a20025;strokeColor=#6F0000;fontColor=#ffffff;" parent="1" vertex="1">
                    <mxGeometry x="1200" y="800" width="100" height="40" as="geometry"/>
                </mxCell>
                <mxCell id="118" value="id" style="ellipse;whiteSpace=wrap;html=1;align=center;fontStyle=4;fillColor=#a20025;strokeColor=#6F0000;fontColor=#ffffff;" parent="1" vertex="1">
                    <mxGeometry x="1200" y="440" width="100" height="40" as="geometry"/>
                </mxCell>
                <mxCell id="121" value="updated_at" style="ellipse;whiteSpace=wrap;html=1;align=center;fillColor=#a20025;strokeColor=#6F0000;fontColor=#ffffff;" parent="1" vertex="1">
                    <mxGeometry x="1200" y="520" width="100" height="40" as="geometry"/>
                </mxCell>
                <mxCell id="124" value="created_at" style="ellipse;whiteSpace=wrap;html=1;align=center;fillColor=#a20025;strokeColor=#6F0000;fontColor=#ffffff;" parent="1" vertex="1">
                    <mxGeometry x="1200" y="840" width="100" height="40" as="geometry"/>
                </mxCell>
                <mxCell id="125" value="updated_at" style="ellipse;whiteSpace=wrap;html=1;align=center;fillColor=#a20025;strokeColor=#6F0000;fontColor=#ffffff;" parent="1" vertex="1">
                    <mxGeometry x="1200" y="880" width="100" height="40" as="geometry"/>
                </mxCell>
                <mxCell id="129" value="results in" style="shape=rhombus;perimeter=rhombusPerimeter;whiteSpace=wrap;html=1;align=center;fillColor=#0050ef;fontColor=#ffffff;strokeColor=#001DBC;" parent="1" vertex="1">
                    <mxGeometry x="840" y="510" width="120" height="60" as="geometry"/>
                </mxCell>
                <mxCell id="152" style="edgeStyle=entityRelationEdgeStyle;rounded=1;orthogonalLoop=1;jettySize=auto;html=1;endArrow=none;endFill=0;" parent="1" source="136" target="150" edge="1">
                    <mxGeometry relative="1" as="geometry"/>
                </mxCell>
                <mxCell id="153" style="edgeStyle=entityRelationEdgeStyle;rounded=1;orthogonalLoop=1;jettySize=auto;html=1;endArrow=none;endFill=0;" parent="1" source="136" target="151" edge="1">
                    <mxGeometry relative="1" as="geometry"/>
                </mxCell>
                <mxCell id="136" value="source" style="ellipse;whiteSpace=wrap;html=1;align=center;fillColor=#a20025;strokeColor=#6F0000;fontColor=#ffffff;" parent="1" vertex="1">
                    <mxGeometry x="1200" y="560" width="100" height="40" as="geometry"/>
                </mxCell>
                <mxCell id="138" value="response" style="ellipse;whiteSpace=wrap;html=1;align=center;fillColor=#a20025;strokeColor=#6F0000;fontColor=#ffffff;" parent="1" vertex="1">
                    <mxGeometry x="1200" y="600" width="100" height="40" as="geometry"/>
                </mxCell>
                <mxCell id="141" value="results in" style="shape=rhombus;perimeter=rhombusPerimeter;whiteSpace=wrap;html=1;align=center;fillColor=#0050ef;fontColor=#ffffff;strokeColor=#001DBC;" parent="1" vertex="1">
                    <mxGeometry x="1030" y="690" width="120" height="60" as="geometry"/>
                </mxCell>
                <mxCell id="142" value="" style="endArrow=none;html=1;rounded=0;dashed=1;dashPattern=1 2;" parent="1" source="115" target="141" edge="1">
                    <mxGeometry relative="1" as="geometry">
                        <mxPoint x="990" y="650" as="sourcePoint"/>
                        <mxPoint x="1150" y="650" as="targetPoint"/>
                    </mxGeometry>
                </mxCell>
                <mxCell id="143" value="1" style="resizable=0;html=1;align=right;verticalAlign=bottom;" parent="142" connectable="0" vertex="1">
                    <mxGeometry x="1" relative="1" as="geometry">
                        <mxPoint x="-10" as="offset"/>
                    </mxGeometry>
                </mxCell>
                <mxCell id="146" value="" style="endArrow=none;html=1;rounded=0;dashed=1;dashPattern=1 2;" parent="1" target="129" edge="1">
                    <mxGeometry relative="1" as="geometry">
                        <mxPoint x="760" y="540" as="sourcePoint"/>
                        <mxPoint x="980" y="640" as="targetPoint"/>
                    </mxGeometry>
                </mxCell>
                <mxCell id="147" value="1" style="resizable=0;html=1;align=right;verticalAlign=bottom;" parent="146" connectable="0" vertex="1">
                    <mxGeometry x="1" relative="1" as="geometry"/>
                </mxCell>
                <mxCell id="148" value="" style="endArrow=none;html=1;rounded=0;dashed=1;dashPattern=1 2;" parent="1" source="115" target="129" edge="1">
                    <mxGeometry relative="1" as="geometry">
                        <mxPoint x="960" y="630" as="sourcePoint"/>
                        <mxPoint x="1120" y="630" as="targetPoint"/>
                    </mxGeometry>
                </mxCell>
                <mxCell id="149" value="1" style="resizable=0;html=1;align=right;verticalAlign=bottom;" parent="148" connectable="0" vertex="1">
                    <mxGeometry x="1" relative="1" as="geometry"/>
                </mxCell>
                <mxCell id="150" value="ip" style="ellipse;whiteSpace=wrap;html=1;align=center;fillColor=#6a00ff;strokeColor=#3700CC;fontColor=#ffffff;" parent="1" vertex="1">
                    <mxGeometry x="1360" y="540" width="100" height="40" as="geometry"/>
                </mxCell>
                <mxCell id="151" value="hostname" style="ellipse;whiteSpace=wrap;html=1;align=center;fillColor=#6a00ff;strokeColor=#3700CC;fontColor=#ffffff;" parent="1" vertex="1">
                    <mxGeometry x="1360" y="580" width="100" height="40" as="geometry"/>
                </mxCell>
                <mxCell id="154" value="response" style="ellipse;whiteSpace=wrap;html=1;align=center;fillColor=#a20025;strokeColor=#6F0000;fontColor=#ffffff;" parent="1" vertex="1">
                    <mxGeometry x="1200" y="920" width="100" height="40" as="geometry"/>
                </mxCell>
                <mxCell id="156" value="" style="shape=link;html=1;" parent="1" source="141" target="114" edge="1">
                    <mxGeometry width="100" relative="1" as="geometry">
                        <mxPoint x="1140" y="690" as="sourcePoint"/>
                        <mxPoint x="1240" y="690" as="targetPoint"/>
                    </mxGeometry>
                </mxCell>
                <mxCell id="157" value="1" style="edgeLabel;html=1;align=center;verticalAlign=middle;resizable=0;points=[];" parent="156" vertex="1" connectable="0">
                    <mxGeometry x="-0.2545" y="2" relative="1" as="geometry">
                        <mxPoint x="-12" y="-31" as="offset"/>
                    </mxGeometry>
                </mxCell>
                <mxCell id="173" style="edgeStyle=entityRelationEdgeStyle;html=1;endArrow=none;endFill=0;exitX=0;exitY=1;exitDx=0;exitDy=0;" parent="1" source="170" target="172" edge="1">
                    <mxGeometry relative="1" as="geometry"/>
                </mxCell>
                <mxCell id="175" style="edgeStyle=entityRelationEdgeStyle;html=1;endArrow=none;endFill=0;exitX=0;exitY=1;exitDx=0;exitDy=0;" parent="1" source="170" target="174" edge="1">
                    <mxGeometry relative="1" as="geometry"/>
                </mxCell>
                <mxCell id="177" style="edgeStyle=entityRelationEdgeStyle;html=1;endArrow=none;endFill=0;exitX=0;exitY=1;exitDx=0;exitDy=0;" parent="1" source="170" target="176" edge="1">
                    <mxGeometry relative="1" as="geometry"/>
                </mxCell>
                <mxCell id="170" value="snapshot" style="shape=ext;margin=3;double=1;whiteSpace=wrap;html=1;align=center;fillColor=#60a917;fontColor=#ffffff;strokeColor=#2D7600;" parent="1" vertex="1">
                    <mxGeometry x="660" y="520" width="100" height="40" as="geometry"/>
                </mxCell>
                <mxCell id="171" value="has" style="shape=rhombus;double=1;perimeter=rhombusPerimeter;whiteSpace=wrap;html=1;align=center;" parent="1" vertex="1">
                    <mxGeometry x="460" y="510" width="120" height="60" as="geometry"/>
                </mxCell>
                <mxCell id="172" value="created_at" style="ellipse;whiteSpace=wrap;html=1;align=center;fillColor=#a20025;strokeColor=#6F0000;fontColor=#ffffff;" parent="1" vertex="1">
                    <mxGeometry x="500" y="640" width="100" height="40" as="geometry"/>
                </mxCell>
                <mxCell id="174" value="updated_at" style="ellipse;whiteSpace=wrap;html=1;align=center;fillColor=#a20025;strokeColor=#6F0000;fontColor=#ffffff;" parent="1" vertex="1">
                    <mxGeometry x="500" y="680" width="100" height="40" as="geometry"/>
                </mxCell>
                <mxCell id="176" value="&lt;span style=&quot;border-bottom: 1px dotted&quot;&gt;id&lt;/span&gt;" style="ellipse;whiteSpace=wrap;html=1;align=center;fillColor=#a20025;strokeColor=#6F0000;fontColor=#ffffff;" parent="1" vertex="1">
                    <mxGeometry x="500" y="600" width="100" height="40" as="geometry"/>
                </mxCell>
                <mxCell id="195" value="has" style="shape=rhombus;perimeter=rhombusPerimeter;whiteSpace=wrap;html=1;align=center;fillColor=#0050ef;fontColor=#ffffff;strokeColor=#001DBC;" parent="1" vertex="1">
                    <mxGeometry x="890" y="240" width="120" height="60" as="geometry"/>
                </mxCell>
                <mxCell id="196" value="" style="endArrow=none;html=1;rounded=0;" parent="1" source="4" target="195" edge="1">
                    <mxGeometry relative="1" as="geometry">
                        <mxPoint x="760" y="300" as="sourcePoint"/>
                        <mxPoint x="920" y="300" as="targetPoint"/>
                    </mxGeometry>
                </mxCell>
                <mxCell id="197" value="N" style="resizable=0;html=1;align=right;verticalAlign=bottom;" parent="196" connectable="0" vertex="1">
                    <mxGeometry x="1" relative="1" as="geometry"/>
                </mxCell>
                <mxCell id="198" value="created_at" style="ellipse;whiteSpace=wrap;html=1;align=center;fillColor=#6a00ff;strokeColor=#3700CC;fontColor=#ffffff;" parent="1" vertex="1">
                    <mxGeometry x="1040" y="140" width="100" height="40" as="geometry"/>
                </mxCell>
                <mxCell id="199" value="updated_at" style="ellipse;whiteSpace=wrap;html=1;align=center;fillColor=#6a00ff;strokeColor=#3700CC;fontColor=#ffffff;" parent="1" vertex="1">
                    <mxGeometry x="1040" y="180" width="100" height="40" as="geometry"/>
                </mxCell>
                <mxCell id="200" value="" style="endArrow=none;html=1;rounded=1;exitX=1;exitY=0;exitDx=0;exitDy=0;edgeStyle=entityRelationEdgeStyle;elbow=vertical;" parent="1" source="195" target="198" edge="1">
                    <mxGeometry relative="1" as="geometry">
                        <mxPoint x="880" y="460" as="sourcePoint"/>
                        <mxPoint x="1040" y="460" as="targetPoint"/>
                    </mxGeometry>
                </mxCell>
                <mxCell id="201" value="" style="endArrow=none;html=1;rounded=1;exitX=1;exitY=0;exitDx=0;exitDy=0;edgeStyle=entityRelationEdgeStyle;" parent="1" source="195" target="199" edge="1">
                    <mxGeometry relative="1" as="geometry">
                        <mxPoint x="880" y="460" as="sourcePoint"/>
                        <mxPoint x="1040" y="460" as="targetPoint"/>
                    </mxGeometry>
                </mxCell>
                <mxCell id="202" value="address" style="whiteSpace=wrap;html=1;align=center;fillColor=#60a917;fontColor=#ffffff;strokeColor=#2D7600;" parent="1" vertex="1">
                    <mxGeometry x="1130" y="250" width="100" height="40" as="geometry"/>
                </mxCell>
                <mxCell id="203" value="" style="endArrow=none;html=1;rounded=0;" parent="1" source="195" target="202" edge="1">
                    <mxGeometry relative="1" as="geometry">
                        <mxPoint x="1050" y="360" as="sourcePoint"/>
                        <mxPoint x="1210" y="360" as="targetPoint"/>
                    </mxGeometry>
                </mxCell>
                <mxCell id="204" value="M" style="resizable=0;html=1;align=left;verticalAlign=bottom;" parent="203" connectable="0" vertex="1">
                    <mxGeometry x="-1" relative="1" as="geometry"/>
                </mxCell>
                <mxCell id="206" value="created_at" style="ellipse;whiteSpace=wrap;html=1;align=center;fillColor=#a20025;strokeColor=#6F0000;fontColor=#ffffff;" parent="1" vertex="1">
                    <mxGeometry x="1290" y="270" width="100" height="40" as="geometry"/>
                </mxCell>
                <mxCell id="207" value="id" style="ellipse;whiteSpace=wrap;html=1;align=center;fontStyle=4;fillColor=#a20025;strokeColor=#6F0000;fontColor=#ffffff;" parent="1" vertex="1">
                    <mxGeometry x="1290" y="190" width="100" height="40" as="geometry"/>
                </mxCell>
                <mxCell id="208" value="updated_at" style="ellipse;whiteSpace=wrap;html=1;align=center;fillColor=#a20025;strokeColor=#6F0000;fontColor=#ffffff;" parent="1" vertex="1">
                    <mxGeometry x="1290" y="310" width="100" height="40" as="geometry"/>
                </mxCell>
                <mxCell id="211" value="ip_raw" style="ellipse;whiteSpace=wrap;html=1;align=center;fontStyle=4;fillColor=#a20025;strokeColor=#6F0000;fontColor=#ffffff;" parent="1" vertex="1">
                    <mxGeometry x="1290" y="230" width="100" height="40" as="geometry"/>
                </mxCell>
                <mxCell id="212" value="" style="endArrow=none;html=1;rounded=1;edgeStyle=entityRelationEdgeStyle;" parent="1" source="202" target="207" edge="1">
                    <mxGeometry relative="1" as="geometry">
                        <mxPoint x="1190" y="270" as="sourcePoint"/>
                        <mxPoint x="1040" y="460" as="targetPoint"/>
                    </mxGeometry>
                </mxCell>
                <mxCell id="214" value="" style="endArrow=none;html=1;rounded=1;edgeStyle=entityRelationEdgeStyle;" parent="1" source="202" target="211" edge="1">
                    <mxGeometry relative="1" as="geometry">
                        <mxPoint x="880" y="460" as="sourcePoint"/>
                        <mxPoint x="1040" y="460" as="targetPoint"/>
                    </mxGeometry>
                </mxCell>
                <mxCell id="215" value="" style="endArrow=none;html=1;rounded=1;edgeStyle=entityRelationEdgeStyle;" parent="1" source="202" target="206" edge="1">
                    <mxGeometry relative="1" as="geometry">
                        <mxPoint x="880" y="460" as="sourcePoint"/>
                        <mxPoint x="1040" y="460" as="targetPoint"/>
                    </mxGeometry>
                </mxCell>
                <mxCell id="216" value="" style="endArrow=none;html=1;rounded=1;edgeStyle=entityRelationEdgeStyle;" parent="1" source="202" target="208" edge="1">
                    <mxGeometry relative="1" as="geometry">
                        <mxPoint x="880" y="460" as="sourcePoint"/>
                        <mxPoint x="1040" y="460" as="targetPoint"/>
                    </mxGeometry>
                </mxCell>
                <mxCell id="261" value="has" style="shape=rhombus;double=1;perimeter=rhombusPerimeter;whiteSpace=wrap;html=1;align=center;fillColor=#0050ef;fontColor=#ffffff;strokeColor=#001DBC;" vertex="1" parent="1">
                    <mxGeometry x="460" y="510" width="120" height="60" as="geometry"/>
                </mxCell>
                <mxCell id="262" value="has" style="shape=rhombus;perimeter=rhombusPerimeter;whiteSpace=wrap;html=1;align=center;fillColor=#0050ef;fontColor=#ffffff;strokeColor=#001DBC;" vertex="1" parent="1">
                    <mxGeometry x="890" y="380" width="120" height="60" as="geometry"/>
                </mxCell>
                <mxCell id="265" value="" style="endArrow=none;html=1;rounded=1;dashed=1;dashPattern=1 2;elbow=vertical;exitX=1;exitY=0.5;exitDx=0;exitDy=0;entryX=0;entryY=0.5;entryDx=0;entryDy=0;edgeStyle=entityRelationEdgeStyle;" edge="1" parent="1" source="170" target="262">
                    <mxGeometry relative="1" as="geometry">
                        <mxPoint x="820" y="440" as="sourcePoint"/>
                        <mxPoint x="980" y="440" as="targetPoint"/>
                    </mxGeometry>
                </mxCell>
                <mxCell id="266" value="N" style="resizable=0;html=1;align=right;verticalAlign=bottom;" connectable="0" vertex="1" parent="265">
                    <mxGeometry x="1" relative="1" as="geometry"/>
                </mxCell>
                <mxCell id="267" value="" style="endArrow=none;html=1;rounded=1;dashed=1;dashPattern=1 2;elbow=vertical;exitX=1;exitY=0.5;exitDx=0;exitDy=0;entryX=0;entryY=0.5;entryDx=0;entryDy=0;edgeStyle=entityRelationEdgeStyle;" edge="1" parent="1" source="262" target="202">
                    <mxGeometry relative="1" as="geometry">
                        <mxPoint x="1060" y="390" as="sourcePoint"/>
                        <mxPoint x="1220" y="390" as="targetPoint"/>
                    </mxGeometry>
                </mxCell>
                <mxCell id="268" value="M" style="resizable=0;html=1;align=left;verticalAlign=bottom;" connectable="0" vertex="1" parent="267">
                    <mxGeometry x="-1" relative="1" as="geometry"/>
                </mxCell>
            </root>
        </mxGraphModel>
    </diagram>
</mxfile>
